<?xml version="1.0" encoding="utf-8"?>
<!-- Generator: Adobe Illustrator 24.0.1, SVG Export Plug-In . SVG Version: 6.00 Build 0)  -->
<svg version="1.1" id="Camada_1" xmlns="http://www.w3.org/2000/svg" xmlns:xlink="http://www.w3.org/1999/xlink" x="0px" y="0px"
	 viewBox="0 0 1024 1024" style="enable-background:new 0 0 1024 1024;" xml:space="preserve">
<g>
	<g transform="translate(0.000000,1024.000000) scale(0.100000,-0.100000)">
		<path d="M2841.5,5912.9c-127.7-55.2-137.5-228.3-17.2-289.7c87.2-44.2,175.6-23.3,221,52.8
			C3131.2,5815.9,2991.2,5977.9,2841.5,5912.9z"/>
		<path d="M3673.8,5795c-117.9-72.4-117.9-246.8,0-319.2c116.6-70,267.6,22.1,267.6,162.1C3941.4,5772.9,3786.8,5863.8,3673.8,5795z
			"/>
	</g>
	<path d="M974,316.8c-25.3-59.7-61.4-113.3-107.4-159.3c-46-46-99.6-82.2-159.3-107.4C645.3,23.9,579.7,10.6,512,10.6
		S378.7,23.9,316.8,50c-59.7,25.3-113.3,61.4-159.3,107.4c-46,46-82.2,99.6-107.4,159.3C23.9,378.7,10.6,444.3,10.6,512
		S23.9,645.3,50,707.2c25.3,59.7,61.4,113.3,107.4,159.3c46,46,99.6,82.2,159.3,107.4c61.8,26.1,127.5,39.4,195.2,39.4
		s133.3-13.3,195.2-39.4c59.7-25.3,113.3-61.4,159.3-107.4c46-46,82.2-99.6,107.4-159.3c26.1-61.8,39.4-127.5,39.4-195.2
		S1000.1,378.7,974,316.8z M672.3,189.9c9.5,0,17.3,7.7,17.3,17.3c0,9.5-7.7,17.3-17.3,17.3s-17.3-7.7-17.3-17.3
		C655,197.7,662.8,189.9,672.3,189.9z M94.5,401c0-7.7,6.3-14,14-14s14,6.3,14,14c0,7.7-6.3,14-14,14S94.5,408.7,94.5,401z
		 M114.5,691.5c-6.3,0-11.5-5.1-11.5-11.5c0-6.3,5.1-11.5,11.5-11.5S126,673.6,126,680C126,686.3,120.8,691.5,114.5,691.5z
		 M152.6,641.6c-7,0-12.7-5.7-12.7-12.7c0-7,5.7-12.7,12.7-12.7s12.7,5.7,12.7,12.7C165.3,635.9,159.7,641.6,152.6,641.6z
		 M201.1,609.6c-4.7,0-8.6-3.8-8.6-8.6s3.8-8.6,8.6-8.6c4.7,0,8.6,3.8,8.6,8.6S205.8,609.6,201.1,609.6z M263.4,772.5
		c-8.5,0-15.3-6.9-15.3-15.3c0-8.5,6.9-15.3,15.3-15.3c8.5,0,15.3,6.9,15.3,15.3C278.7,765.6,271.9,772.5,263.4,772.5z M278.7,716.2
		c-6,0-11-4.9-11-11s4.9-11,11-11c6,0,11,4.9,11,11S284.8,716.2,278.7,716.2z M336.7,814.2c-8.6,0-15.5-6.9-15.5-15.5
		c0-8.6,6.9-15.5,15.5-15.5c8.6,0,15.5,6.9,15.5,15.5C352.2,807.2,345.3,814.2,336.7,814.2z M727.3,911.2
		c-64,34.6-137.4,54.3-215.3,54.3c-8,0-16-0.2-23.9-0.6l0.2-13.4c0-7.7,0.7-25.8,1.5-39.9c3.7-68.4,2.9-154.7-1.8-202.6
		c-2.7-27.5-8-60.9-10.9-68.3c-0.6-1.6,2.2-2.9,14.4-7.1c22.2-7.7,41.5-17.4,44.4-22.2c5.3-9.1-4.2-22.1-16.2-22.1
		c-2.1,0-8.3,2.2-14.1,4.8c-27.5,12.6-82.6,27.5-114.4,30.8c-22,2.3-56.1,1-79.8-3.3c-12.9-2.3-36-11-55.2-21
		c-22.2-11.5-35.8-26.9-39.9-45.1c-2.2-9.8-1.6-29.5,1.2-40.5c3.1-12.2,11.7-29.8,19.5-40.1c35-46,107.2-85.9,181.2-99.9
		c23.6-4.4,57-4.9,82.3-1.1c27.7,4.2,51.9,11.9,75.9,24.2c15.5,8,22.8,13.5,40,30c25.5,24.4,41.2,45.8,56,76
		c21.5,44,29.8,82.9,40.4,187.2c4.8,46.8,11,131.6,12.4,166.3c0.4,10.1,1.2,26.6,2,36.8C727.5,903.4,728.1,908.1,727.3,911.2z
		 M606.4,377.7c0-5.1,4.2-9.3,9.3-9.3c5.1,0,9.3,4.2,9.3,9.3s-4.2,9.3-9.3,9.3C610.5,387,606.4,382.9,606.4,377.7z M774.8,744.6
		c-5.6,0-10.2-4.6-10.2-10.2s4.6-10.2,10.2-10.2c5.6,0,10.2,4.6,10.2,10.2S780.4,744.6,774.8,744.6z M774.8,694.3
		c-7.3,0-13.3-5.9-13.3-13.3s5.9-13.3,13.3-13.3c7.3,0,13.3,5.9,13.3,13.3S782.1,694.3,774.8,694.3z M762.5,633.3
		c0-6.2,5-11.2,11.2-11.2c6.2,0,11.2,5,11.2,11.2c0,6.2-5,11.2-11.2,11.2C767.6,644.5,762.5,639.5,762.5,633.3z M819.3,655
		c-4.9,0-8.9-4-8.9-8.9s4-8.9,8.9-8.9s8.9,4,8.9,8.9S824.2,655,819.3,655z M857.5,636.8c-7.3,0-13.2-5.9-13.2-13.2
		c0-7.3,5.9-13.2,13.2-13.2c7.3,0,13.2,5.9,13.2,13.2C870.7,630.9,864.8,636.8,857.5,636.8z M863.7,561.5c-6.2,0-11.3-5-11.3-11.3
		c0-6.2,5-11.3,11.3-11.3c6.2,0,11.3,5,11.3,11.3C875,556.4,869.9,561.5,863.7,561.5z M888,597.6c-4.9,0-8.9-4-8.9-8.9
		s4-8.9,8.9-8.9s8.9,4,8.9,8.9S892.9,597.6,888,597.6z M926.2,564.5c-5,0-9.1-4.1-9.1-9.1c0-5,4.1-9.1,9.1-9.1s9.1,4.1,9.1,9.1
		C935.3,560.5,931.3,564.5,926.2,564.5z M964.9,535.1C761.5,368,501,267.7,217.2,267.7c-30.1,0-60,1.1-89.5,3.4
		c17.4-27.7,37.8-53.5,60.6-76.7c9.6-0.2,19.3-0.3,28.9-0.3c277.8,0,534.5,90.4,742.2,243.4c4,24.2,6.1,49.1,6.1,74.5
		C965.5,519.7,965.3,527.5,964.9,535.1z"/>
</g>
</svg>
